<svg xmlns="http://www.w3.org/2000/svg" xmlns:xlink="http://www.w3.org/1999/xlink" width="500" zoomAndPan="magnify" viewBox="0 0 375 374.999991" height="500" preserveAspectRatio="xMidYMid meet" version="1.0"><defs><g/></defs><path fill="#314f89" d="M 132.640625 114.632812 L 114.914062 118.503906 L 100.863281 121.527344 L 90.207031 122.847656 L 64.277344 126.058594 L 95.300781 120.488281 Z M 132.640625 114.632812 " fill-opacity="1" fill-rule="nonzero"/><path fill="#3b3b3b" d="M 114.914062 118.503906 L 100.863281 121.527344 L 90.207031 122.847656 L 108.40625 119.167969 Z M 114.914062 118.503906 " fill-opacity="1" fill-rule="nonzero"/><path fill="#3b3b3b" d="M 102.089844 182.621094 L 118.589844 179.695312 L 147.632812 175.160156 L 155.175781 175.160156 L 139.242188 180.167969 L 132.074219 184.414062 L 159.230469 191.214844 L 182.992188 192.160156 L 264.179688 194.234375 L 273.796875 194.800781 L 273.796875 196.878906 L 155.835938 197.636719 C 155.835938 197.636719 132.640625 198.296875 131.792969 197.824219 L 116.234375 189.796875 L 102.089844 186.019531 Z M 102.089844 182.621094 " fill-opacity="1" fill-rule="nonzero"/><path fill="#3b3b3b" d="M 381.667969 189.988281 C 378.875 189.527344 376.140625 188.835938 373.464844 187.910156 C 371.492188 187.1875 369.574219 186.335938 367.714844 185.359375 C 370.316406 181.875 371.890625 177.972656 372.429688 173.652344 C 372.503906 173.054688 372.535156 172.457031 372.523438 171.855469 L 354.796875 168.457031 L 346.496094 166.851562 L 339.613281 165.53125 C 340.421875 171.160156 340.453125 176.792969 339.707031 182.433594 C 338.992188 187.785156 337.578125 192.949219 335.464844 197.917969 L 356.398438 197.917969 C 359.699219 198.011719 380.726562 198.769531 382.234375 192.914062 C 382.464844 191.855469 382.277344 190.882812 381.667969 189.988281 Z M 338.199219 196.03125 C 341.140625 190.109375 342.710938 183.847656 342.914062 177.238281 C 342.984375 174.328125 342.796875 171.429688 342.347656 168.550781 L 366.960938 172.613281 C 365.597656 176.507812 363.585938 180.035156 360.925781 183.1875 C 353.097656 192.535156 342.160156 195.273438 338.199219 196.03125 Z M 373.558594 195.085938 C 368.183594 196.691406 363.941406 196.21875 359.511719 196.125 C 354.445312 195.910156 349.382812 196.003906 344.328125 196.40625 C 351.402344 195.367188 358.945312 194.519531 366.960938 193.953125 L 377.804688 193.386719 C 376.433594 194.0625 375.019531 194.628906 373.558594 195.085938 Z M 373.558594 195.085938 " fill-opacity="1" fill-rule="nonzero"/><path fill="#3b3b3b" d="M 17.507812 150.609375 C 17.226562 150.609375 16.375 152.027344 14.113281 159.960938 C 14.085938 164.351562 14.578125 168.6875 15.582031 172.964844 C 16.585938 177.242188 18.074219 181.34375 20.054688 185.265625 L 23.824219 192.914062 L 37.121094 194.234375 C 34.703125 191.445312 32.914062 188.296875 31.746094 184.792969 C 30.824219 181.9375 30.417969 179.011719 30.519531 176.011719 C 27.566406 175.425781 24.988281 174.105469 22.789062 172.046875 C 18.542969 167.984375 17.980469 162.414062 17.601562 159.109375 C 17.128906 154.199219 17.980469 150.707031 17.507812 150.609375 Z M 17.507812 150.609375 " fill-opacity="1" fill-rule="nonzero"/><path fill="#3b3b3b" d="M 354.417969 154.386719 C 351.589844 152.441406 348.667969 150.648438 345.648438 149.003906 L 341.40625 146.832031 C 325.28125 139.28125 318.398438 140.128906 290.488281 133.519531 C 272.289062 129.175781 273.890625 126.722656 253.054688 120.207031 C 238.40625 115.503906 223.445312 112.261719 208.167969 110.480469 C 186.011719 107.929688 169.601562 109.820312 149.613281 111.613281 C 134.335938 112.933594 117.457031 116.050781 90.585938 119.542969 L 46.457031 127.664062 L 37.496094 129.269531 L 32.78125 130.121094 L 37.308594 129.929688 L 45.890625 129.554688 L 92.753906 127.664062 L 110.386719 133.425781 L 145.464844 142.207031 L 157.34375 137.203125 L 202.132812 140.414062 L 211.5625 142.960938 L 174.601562 141.640625 L 158.855469 140.886719 L 153.289062 143.527344 L 225.238281 156.183594 L 273.984375 163.832031 C 275.582031 160.601562 277.625 157.691406 280.121094 155.097656 C 282.613281 152.503906 285.441406 150.347656 288.601562 148.628906 C 305.199219 139.75 322.359375 148.25 323.773438 149.003906 C 326.980469 150.679688 329.890625 152.769531 332.503906 155.273438 C 335.121094 157.78125 337.332031 160.601562 339.144531 163.734375 L 346.496094 164.964844 L 354.796875 166.378906 L 371.578125 169.308594 C 366.417969 163.6875 360.699219 158.714844 354.417969 154.386719 Z M 87.851562 126.152344 L 67.953125 127.382812 L 90.207031 122.847656 L 100.863281 121.527344 L 114.914062 118.503906 L 127.640625 116.996094 L 103.503906 123.699219 Z M 267.386719 141.828125 L 260.40625 142.585938 L 214.769531 138.523438 L 155.175781 134.558594 L 115.949219 132.574219 L 105.292969 129.363281 L 106.332031 127.097656 L 127.640625 120.207031 L 144.425781 115.863281 L 187.613281 112.652344 L 229.480469 117.277344 L 255.691406 124.265625 L 288.414062 135.597656 Z M 354.796875 164.871094 L 346.496094 163.074219 L 341.027344 161.941406 C 339.058594 158.53125 336.636719 155.480469 333.769531 152.78125 C 329.644531 148.804688 324.898438 145.8125 319.53125 143.8125 C 323.054688 143.808594 326.542969 144.15625 329.996094 144.851562 C 335.585938 146.007812 340.867188 147.988281 345.839844 150.800781 C 346.785156 151.273438 347.699219 151.808594 348.574219 152.40625 C 350.363281 153.445312 352.34375 154.671875 354.605469 156.277344 C 359.105469 159.535156 363.191406 163.25 366.867188 167.417969 Z M 354.796875 164.871094 " fill-opacity="1" fill-rule="nonzero"/><path fill="#3b3b3b" d="M 44.097656 127.476562 L 37.6875 128.230469 L 29.011719 129.460938 L 26.652344 130.78125 L 17.035156 125.117188 L 38.0625 126.910156 Z M 44.097656 127.476562 " fill-opacity="1" fill-rule="nonzero"/><path fill="#004aad" d="M 92.375 168.269531 C 91.738281 167.148438 91.027344 166.074219 90.25 165.046875 C 89.46875 164.019531 88.621094 163.050781 87.710938 162.136719 C 86.800781 161.222656 85.832031 160.375 84.808594 159.59375 C 83.785156 158.808594 82.714844 158.09375 81.597656 157.453125 C 80.476562 156.8125 79.320312 156.25 78.128906 155.765625 C 76.933594 155.277344 75.714844 154.875 74.464844 154.550781 C 73.21875 154.230469 71.953125 153.988281 70.675781 153.835938 C 69.394531 153.683594 68.113281 153.613281 66.824219 153.632812 C 50.980469 153.726562 38.15625 166.378906 38.253906 181.773438 C 38.273438 185.453125 39.027344 188.980469 40.515625 192.347656 C 38.203125 188.277344 37.042969 183.902344 37.027344 179.222656 C 36.933594 163.832031 49.757812 151.273438 65.597656 151.175781 C 67.003906 151.148438 68.402344 151.21875 69.796875 151.394531 C 71.191406 151.570312 72.566406 151.847656 73.917969 152.226562 C 75.273438 152.609375 76.589844 153.085938 77.875 153.660156 C 79.15625 154.230469 80.390625 154.898438 81.578125 155.652344 C 82.761719 156.410156 83.886719 157.25 84.945312 158.171875 C 86.007812 159.09375 86.996094 160.089844 87.910156 161.160156 C 88.824219 162.226562 89.65625 163.355469 90.40625 164.546875 C 91.152344 165.738281 91.8125 166.980469 92.375 168.269531 Z M 92.375 168.269531 " fill-opacity="1" fill-rule="nonzero"/><path fill="#3b3b3b" d="M 94.640625 178.84375 C 94.625 175.160156 93.871094 171.632812 92.375 168.269531 C 91.773438 167.140625 91.082031 166.070312 90.300781 165.058594 L 89.640625 164.207031 C 89.546875 164.019531 89.359375 163.925781 89.265625 163.832031 C 89.171875 163.734375 89.171875 163.640625 89.078125 163.546875 L 88.511719 162.980469 L 87.945312 162.320312 L 87.191406 161.660156 C 87.019531 161.390625 86.800781 161.167969 86.53125 160.996094 L 85.871094 160.335938 L 84.363281 159.203125 L 83.796875 158.824219 L 83.230469 158.449219 L 82.382812 157.882812 L 82.289062 157.882812 L 81.816406 157.691406 C 81.628906 157.503906 81.4375 157.503906 81.25 157.410156 L 80.777344 157.125 C 80.683594 157 80.558594 156.9375 80.402344 156.9375 L 80.210938 156.9375 L 79.457031 156.558594 L 78.894531 156.277344 L 78.796875 156.277344 C 78.703125 156.148438 78.578125 156.085938 78.421875 156.085938 L 77.761719 155.804688 L 76.722656 155.425781 L 75.875 155.144531 L 74.933594 154.859375 L 74.367188 154.859375 L 73.046875 154.480469 L 72.105469 154.292969 L 63.238281 154.292969 L 60.222656 154.765625 L 59.375 155.046875 L 58.429688 155.238281 L 57.582031 155.519531 L 56.640625 155.898438 L 56.546875 155.898438 L 55.886719 156.183594 L 55.695312 156.183594 L 55.035156 156.464844 L 54.28125 156.84375 L 53.714844 157.125 L 53.246094 157.316406 L 52.585938 157.691406 L 51.453125 158.355469 L 50.605469 158.921875 L 49.757812 159.582031 C 48.632812 160.328125 47.597656 161.179688 46.644531 162.128906 L 46.078125 162.695312 C 45.683594 163.0625 45.335938 163.472656 45.042969 163.925781 C 44.851562 164.113281 44.664062 164.207031 44.570312 164.398438 L 43.910156 165.246094 C 43.636719 165.578125 43.382812 165.921875 43.15625 166.285156 L 42.589844 167.136719 L 42.210938 167.796875 L 41.742188 168.457031 C 41.652344 168.726562 41.527344 168.980469 41.363281 169.210938 C 41.242188 169.515625 41.085938 169.800781 40.890625 170.0625 C 40.78125 170.382812 40.65625 170.699219 40.515625 171.007812 L 40.230469 171.667969 C 40.125 171.84375 40.0625 172.03125 40.042969 172.234375 C 40.042969 172.328125 40.042969 172.328125 39.949219 172.328125 L 39.667969 173.273438 C 39.484375 173.699219 39.359375 174.136719 39.289062 174.59375 C 39.183594 174.804688 39.121094 175.023438 39.101562 175.257812 L 38.914062 175.726562 C 38.914062 175.863281 38.882812 175.988281 38.816406 176.105469 C 38.816406 176.292969 38.722656 176.484375 38.722656 176.765625 C 38.722656 177.050781 38.628906 177.238281 38.535156 177.523438 C 38.550781 177.8125 38.519531 178.09375 38.441406 178.371094 C 38.457031 178.628906 38.425781 178.882812 38.347656 179.128906 L 38.347656 179.976562 C 38.269531 180.253906 38.238281 180.539062 38.253906 180.828125 L 38.253906 181.867188 C 38.265625 185.550781 39.019531 189.074219 40.515625 192.441406 C 41.152344 193.5625 41.863281 194.636719 42.644531 195.664062 C 43.425781 196.691406 44.269531 197.660156 45.179688 198.574219 C 46.089844 199.484375 47.058594 200.335938 48.082031 201.117188 C 49.105469 201.902344 50.175781 202.613281 51.296875 203.253906 C 52.414062 203.894531 53.570312 204.460938 54.765625 204.945312 C 55.957031 205.433594 57.179688 205.835938 58.425781 206.160156 C 59.671875 206.480469 60.9375 206.71875 62.214844 206.875 C 63.496094 207.027344 64.78125 207.097656 66.070312 207.078125 L 66.824219 207.078125 C 65.660156 207.0625 64.503906 206.972656 63.351562 206.808594 C 62.199219 206.640625 61.0625 206.398438 59.941406 206.085938 C 58.820312 205.769531 57.726562 205.382812 56.65625 204.925781 C 55.585938 204.46875 54.550781 203.941406 53.550781 203.347656 C 52.550781 202.753906 51.59375 202.09375 50.675781 201.375 C 49.761719 200.65625 48.898438 199.878906 48.082031 199.046875 C 47.269531 198.214844 46.511719 197.332031 45.816406 196.402344 C 45.117188 195.46875 44.480469 194.496094 43.910156 193.480469 C 42.601562 190.371094 41.941406 187.128906 41.929688 183.753906 C 41.894531 180.96875 42.320312 178.253906 43.210938 175.613281 C 44.097656 172.976562 45.402344 170.558594 47.117188 168.363281 C 48.085938 166.769531 49.238281 165.324219 50.582031 164.027344 C 51.925781 162.730469 53.410156 161.628906 55.039062 160.71875 C 56.664062 159.808594 58.382812 159.121094 60.1875 158.65625 C 61.992188 158.191406 63.828125 157.964844 65.691406 157.976562 L 68.144531 157.976562 C 69.328125 157.953125 70.507812 158.011719 71.683594 158.148438 C 72.859375 158.28125 74.019531 158.496094 75.167969 158.789062 C 76.316406 159.082031 77.4375 159.453125 78.535156 159.894531 C 79.632812 160.339844 80.699219 160.855469 81.726562 161.445312 C 82.753906 162.03125 83.738281 162.683594 84.679688 163.40625 C 85.621094 164.125 86.507812 164.90625 87.34375 165.746094 C 88.179688 166.585938 88.957031 167.476562 89.671875 168.421875 C 90.390625 169.363281 91.039062 170.351562 91.621094 171.382812 C 92.992188 174.480469 93.683594 177.722656 93.695312 181.109375 C 93.730469 185.234375 92.820312 189.136719 90.960938 192.820312 C 92.175781 190.691406 93.09375 188.441406 93.714844 186.074219 C 94.339844 183.703125 94.648438 181.292969 94.640625 178.84375 Z M 94.640625 178.84375 " fill-opacity="1" fill-rule="nonzero"/><path fill="#004aad" d="M 332.824219 169.683594 C 332.1875 168.566406 331.476562 167.496094 330.695312 166.472656 C 329.910156 165.449219 329.066406 164.480469 328.152344 163.570312 C 327.242188 162.664062 326.273438 161.816406 325.25 161.035156 C 324.226562 160.257812 323.15625 159.546875 322.035156 158.910156 C 320.917969 158.273438 319.761719 157.714844 318.566406 157.234375 C 317.375 156.753906 316.152344 156.351562 314.90625 156.035156 C 313.660156 155.714844 312.398438 155.480469 311.117188 155.332031 C 309.839844 155.183594 308.558594 155.121094 307.273438 155.144531 C 291.335938 155.238281 278.605469 167.796875 278.699219 183.1875 C 278.726562 186.855469 279.453125 190.382812 280.871094 193.765625 C 278.601562 189.71875 277.46875 185.375 277.476562 180.734375 C 277.378906 165.339844 290.109375 152.6875 306.046875 152.59375 C 307.449219 152.570312 308.847656 152.652344 310.238281 152.835938 C 311.628906 153.019531 313 153.300781 314.351562 153.683594 C 315.703125 154.066406 317.019531 154.546875 318.296875 155.121094 C 319.578125 155.699219 320.8125 156.363281 321.996094 157.117188 C 323.179688 157.875 324.300781 158.710938 325.363281 159.628906 C 326.425781 160.550781 327.414062 161.542969 328.332031 162.605469 C 329.246094 163.671875 330.082031 164.796875 330.835938 165.980469 C 331.589844 167.167969 332.253906 168.402344 332.824219 169.683594 Z M 332.824219 169.683594 " fill-opacity="1" fill-rule="nonzero"/><path fill="#3b3b3b" d="M 335.089844 180.355469 C 335.097656 179.46875 335.058594 178.585938 334.972656 177.707031 C 334.890625 176.824219 334.757812 175.949219 334.582031 175.082031 C 334.40625 174.214844 334.183594 173.363281 333.914062 172.519531 C 333.648438 171.675781 333.339844 170.847656 332.984375 170.035156 C 332.628906 169.226562 332.234375 168.4375 331.796875 167.667969 C 331.355469 166.898438 330.878906 166.15625 330.363281 165.4375 C 329.847656 164.71875 329.292969 164.027344 328.707031 163.367188 C 328.117188 162.710938 327.492188 162.082031 326.839844 161.488281 C 326.183594 160.894531 325.5 160.335938 324.785156 159.816406 C 324.070312 159.292969 323.332031 158.8125 322.566406 158.367188 C 321.800781 157.925781 321.015625 157.523438 320.207031 157.164062 C 319.398438 156.804688 318.574219 156.488281 317.734375 156.214844 C 316.894531 155.941406 316.039062 155.714844 315.175781 155.53125 C 314.3125 155.351562 313.4375 155.214844 312.558594 155.125 C 311.679688 155.035156 310.800781 154.992188 309.914062 154.992188 C 309.03125 154.996094 308.148438 155.046875 307.273438 155.144531 L 303.121094 155.144531 L 302.179688 155.332031 L 302.085938 155.332031 L 301.046875 155.519531 L 300.105469 155.710938 L 299.066406 155.992188 L 298.125 156.371094 L 297.464844 156.558594 L 297.183594 156.558594 L 296.238281 156.9375 L 296.144531 156.9375 L 295.203125 157.410156 L 295.109375 157.410156 L 294.257812 157.882812 L 294.164062 157.882812 L 293.597656 158.164062 L 291.808594 159.203125 L 290.203125 160.335938 C 289.105469 161.144531 288.066406 162.023438 287.09375 162.980469 L 286.527344 163.546875 C 286.257812 163.71875 286.039062 163.9375 285.867188 164.207031 L 285.394531 164.679688 L 284.925781 165.246094 L 283.414062 167.230469 L 283.039062 167.890625 L 282.566406 168.644531 C 282.511719 168.695312 282.480469 168.757812 282.472656 168.835938 L 281.8125 169.96875 C 281.261719 170.972656 280.792969 172.011719 280.398438 173.085938 C 280.304688 173.273438 280.304688 173.554688 280.210938 173.746094 C 280.117188 173.933594 280.117188 174.027344 280.019531 174.121094 L 280.019531 174.3125 C 279.925781 174.40625 279.925781 174.59375 279.832031 174.691406 C 279.828125 174.925781 279.765625 175.148438 279.644531 175.351562 L 279.359375 176.578125 C 279.265625 176.765625 279.265625 176.957031 279.171875 177.144531 C 279.078125 177.332031 279.078125 177.617188 279.078125 177.804688 C 279.078125 177.996094 278.984375 178.277344 278.984375 178.464844 C 278.984375 178.65625 278.890625 178.9375 278.890625 179.128906 C 278.890625 179.316406 278.796875 180.261719 278.699219 180.734375 L 278.699219 184.226562 C 278.707031 184.300781 278.738281 184.367188 278.796875 184.414062 L 278.796875 185.644531 C 278.796875 185.925781 278.890625 186.210938 278.890625 186.492188 C 278.96875 186.707031 279 186.925781 278.984375 187.152344 C 279.058594 187.335938 279.09375 187.523438 279.078125 187.71875 L 279.359375 188.664062 C 279.359375 188.757812 279.457031 188.949219 279.457031 189.042969 C 279.550781 189.324219 279.550781 189.609375 279.644531 189.890625 C 279.738281 190.175781 280.210938 191.59375 280.585938 192.441406 C 280.964844 193.292969 280.679688 192.820312 280.773438 193.007812 C 281.390625 194.167969 282.082031 195.285156 282.847656 196.351562 C 283.613281 197.417969 284.449219 198.429688 285.351562 199.382812 C 286.253906 200.335938 287.21875 201.226562 288.242188 202.050781 C 289.261719 202.875 290.335938 203.625 291.460938 204.304688 C 292.585938 204.984375 293.75 205.582031 294.953125 206.105469 C 296.160156 206.625 297.394531 207.0625 298.65625 207.417969 C 299.921875 207.769531 301.203125 208.039062 302.503906 208.21875 C 303.804688 208.398438 305.109375 208.492188 306.421875 208.496094 L 307.175781 208.496094 C 306.019531 208.484375 304.867188 208.398438 303.71875 208.238281 C 302.570312 208.078125 301.4375 207.84375 300.324219 207.53125 C 299.207031 207.222656 298.113281 206.839844 297.050781 206.386719 C 295.984375 205.929688 294.949219 205.410156 293.953125 204.816406 C 292.957031 204.226562 292 203.574219 291.089844 202.859375 C 290.179688 202.140625 289.316406 201.371094 288.507812 200.539062 C 287.695312 199.710938 286.945312 198.832031 286.25 197.902344 C 285.554688 196.972656 284.925781 196.003906 284.359375 194.992188 C 283.035156 191.882812 282.34375 188.640625 282.285156 185.265625 C 282.277344 182.46875 282.71875 179.746094 283.605469 177.09375 C 284.492188 174.445312 285.78125 172.003906 287.46875 169.78125 C 288.464844 168.199219 289.644531 166.765625 291 165.484375 C 292.355469 164.199219 293.847656 163.105469 295.480469 162.195312 C 297.109375 161.289062 298.828125 160.597656 300.632812 160.121094 C 302.4375 159.648438 304.273438 159.40625 306.140625 159.390625 L 308.59375 159.390625 C 309.773438 159.378906 310.953125 159.441406 312.128906 159.582031 C 313.300781 159.722656 314.460938 159.941406 315.605469 160.238281 C 316.75 160.535156 317.871094 160.90625 318.96875 161.351562 C 320.0625 161.796875 321.125 162.3125 322.152344 162.898438 C 323.179688 163.488281 324.164062 164.136719 325.105469 164.855469 C 326.046875 165.574219 326.933594 166.351562 327.773438 167.1875 C 328.609375 168.023438 329.386719 168.910156 330.109375 169.851562 C 330.828125 170.789062 331.480469 171.773438 332.070312 172.800781 C 333.449219 175.929688 334.140625 179.203125 334.144531 182.621094 C 334.136719 186.722656 333.195312 190.59375 331.316406 194.234375 C 332.566406 192.136719 333.507812 189.910156 334.148438 187.554688 C 334.789062 185.195312 335.101562 182.796875 335.089844 180.355469 Z M 335.089844 180.355469 " fill-opacity="1" fill-rule="nonzero"/><path fill="#3b3b3b" d="M 146.125 168.929688 C 136.113281 160.128906 125.175781 152.703125 113.308594 146.644531 C 104.636719 142.207031 95.015625 137.390625 81.34375 135.503906 C 75.800781 134.707031 70.238281 134.519531 64.65625 134.9375 C 56.691406 135.5625 49.054688 137.484375 41.742188 140.695312 C 38.171875 142.375 34.777344 144.359375 31.558594 146.644531 L 31.179688 148.0625 C 33.679688 146.25 36.320312 144.675781 39.101562 143.339844 C 49 138.429688 58.054688 137.675781 64.277344 137.109375 C 70.390625 136.640625 76.488281 136.796875 82.570312 137.578125 C 90.394531 138.808594 97.46875 141.167969 112.554688 149.101562 C 124.089844 155.125 135.277344 161.734375 146.125 168.929688 Z M 146.125 168.929688 " fill-opacity="1" fill-rule="nonzero"/><path fill="#3b3b3b" d="M 103.597656 177.710938 C 103.996094 175.40625 103.960938 173.109375 103.503906 170.816406 C 103.136719 168.492188 102.351562 166.320312 101.144531 164.300781 C 109.351562 167.222656 117.742188 169.425781 126.324219 170.914062 C 132.566406 171.949219 138.855469 172.578125 145.179688 172.800781 Z M 103.597656 177.710938 " fill-opacity="1" fill-rule="nonzero"/><path fill="#3b3b3b" d="M 38.0625 113.59375 C 55.507812 48.441406 118.777344 0 194.023438 0 C 279.078125 0 348.949219 61.945312 354.417969 140.035156 C 351.683594 138.242188 348.761719 136.542969 345.648438 134.839844 C 337.539062 63.550781 272.667969 7.742188 194.023438 7.742188 C 123.210938 7.742188 63.429688 53.066406 46.457031 114.351562 L 37.496094 115.863281 C 37.523438 115.539062 37.585938 115.226562 37.6875 114.917969 Z M 38.0625 113.59375 " fill-opacity="1" fill-rule="nonzero"/><path fill="#3b3b3b" d="M 201.191406 18.414062 L 208.074219 32.011719 L 223.539062 34.183594 L 212.316406 44.757812 L 214.957031 59.679688 L 201.191406 52.597656 L 187.332031 59.679688 L 189.96875 44.757812 L 178.75 34.183594 L 194.214844 32.011719 Z M 201.191406 18.414062 " fill-opacity="1" fill-rule="nonzero"/><path fill="#3b3b3b" d="M 136.882812 36.449219 L 142.539062 47.496094 L 155.082031 49.289062 L 146.03125 57.882812 L 148.105469 70.066406 L 136.882812 64.304688 L 125.664062 70.066406 L 127.832031 57.882812 L 118.683594 49.289062 L 131.226562 47.496094 Z M 136.882812 36.449219 " fill-opacity="1" fill-rule="nonzero"/><path fill="#3b3b3b" d="M 94.640625 70.066406 L 99.261719 78.941406 L 109.347656 80.453125 L 101.996094 87.34375 L 103.785156 97.164062 L 94.640625 92.539062 L 85.585938 97.164062 L 87.285156 87.34375 L 79.929688 80.453125 L 90.113281 78.941406 Z M 94.640625 70.066406 " fill-opacity="1" fill-rule="nonzero"/><path fill="#3b3b3b" d="M 293.410156 70.066406 L 298.03125 78.941406 L 308.214844 80.453125 L 300.765625 87.34375 L 302.558594 97.164062 L 293.410156 92.539062 L 284.359375 97.164062 L 286.054688 87.34375 L 278.699219 80.453125 L 288.882812 78.941406 Z M 293.410156 70.066406 " fill-opacity="1" fill-rule="nonzero"/><path fill="#3b3b3b" d="M 254.65625 36.449219 L 260.21875 47.496094 L 272.855469 49.289062 L 263.707031 57.882812 L 265.875 70.066406 L 254.65625 64.304688 L 243.339844 70.066406 L 245.507812 57.882812 L 236.363281 49.289062 L 249 47.496094 Z M 254.65625 36.449219 " fill-opacity="1" fill-rule="nonzero"/><path fill="#3b3b3b" d="M 318.964844 260.335938 L 329.148438 260.335938 C 300.199219 300.464844 251.261719 327 196.003906 327 C 140.75 327 91.714844 300.464844 62.863281 260.335938 L 72.953125 260.335938 C 100.769531 295.933594 145.558594 319.164062 196.003906 319.164062 C 246.453125 319.164062 291.148438 295.933594 318.964844 260.335938 Z M 318.964844 260.335938 " fill-opacity="1" fill-rule="nonzero"/><g fill="#3b3b3b" fill-opacity="1"><g transform="translate(140.583181, 237.821065)"><g><path d="M 27.03125 0 L 25.1875 -7.015625 L 13.015625 -7.015625 L 11.125 0 L 0 0 L 12.21875 -37.625 L 25.734375 -37.625 L 38.109375 0 Z M 23.09375 -15.328125 L 21.46875 -21.46875 C 21.09375 -22.84375 20.632812 -24.613281 20.09375 -26.78125 C 19.5625 -28.945312 19.210938 -30.5 19.046875 -31.4375 C 18.890625 -30.570312 18.582031 -29.140625 18.125 -27.140625 C 17.675781 -25.140625 16.675781 -21.203125 15.125 -15.328125 Z M 23.09375 -15.328125 "/></g></g></g><g fill="#3b3b3b" fill-opacity="1"><g transform="translate(178.68469, 237.821065)"><g><path d="M 29.234375 0 L 26.703125 -2.609375 C 25.160156 -1.640625 23.898438 -0.96875 22.921875 -0.59375 C 21.941406 -0.226562 20.835938 0.046875 19.609375 0.234375 C 18.390625 0.421875 16.992188 0.515625 15.421875 0.515625 C 12.722656 0.515625 10.335938 0.0546875 8.265625 -0.859375 C 6.191406 -1.785156 4.601562 -3.078125 3.5 -4.734375 C 2.394531 -6.398438 1.84375 -8.289062 1.84375 -10.40625 C 1.84375 -14.882812 4.164062 -18.3125 8.8125 -20.6875 C 7.757812 -21.875 6.9375 -23.140625 6.34375 -24.484375 C 5.75 -25.828125 5.453125 -27.34375 5.453125 -29.03125 C 5.453125 -31.769531 6.503906 -33.941406 8.609375 -35.546875 C 10.722656 -37.148438 13.628906 -37.953125 17.328125 -37.953125 C 20.929688 -37.953125 23.734375 -37.148438 25.734375 -35.546875 C 27.742188 -33.953125 28.75 -31.78125 28.75 -29.03125 C 28.75 -27.132812 28.207031 -25.378906 27.125 -23.765625 C 26.039062 -22.148438 24.328125 -20.632812 21.984375 -19.21875 L 27.09375 -14.375 C 28.375 -16.34375 29.257812 -18.566406 29.75 -21.046875 L 40.15625 -21.046875 C 39.644531 -18.679688 38.835938 -16.316406 37.734375 -13.953125 C 36.628906 -11.585938 35.382812 -9.5625 34 -7.875 L 42.203125 0 Z M 12.171875 -11.125 C 12.171875 -10.039062 12.554688 -9.15625 13.328125 -8.46875 C 14.097656 -7.789062 15.113281 -7.453125 16.375 -7.453125 C 17.351562 -7.453125 18.207031 -7.578125 18.9375 -7.828125 C 19.675781 -8.085938 20.238281 -8.382812 20.625 -8.71875 L 14.28125 -15.171875 C 12.875 -14.128906 12.171875 -12.78125 12.171875 -11.125 Z M 19.734375 -29.03125 C 19.734375 -29.875 19.488281 -30.476562 19 -30.84375 C 18.507812 -31.207031 17.898438 -31.390625 17.171875 -31.390625 C 16.453125 -31.390625 15.820312 -31.175781 15.28125 -30.75 C 14.75 -30.320312 14.484375 -29.640625 14.484375 -28.703125 C 14.484375 -27.421875 15.234375 -26.097656 16.734375 -24.734375 C 17.703125 -25.273438 18.441406 -25.925781 18.953125 -26.6875 C 19.472656 -27.445312 19.734375 -28.226562 19.734375 -29.03125 Z M 19.734375 -29.03125 "/></g></g></g><g fill="#3b3b3b" fill-opacity="1"><g transform="translate(220.604024, 237.821065)"><g><path d="M 14.171875 -13.640625 L 14.171875 0 L 4.046875 0 L 4.046875 -37.46875 L 16.328125 -37.46875 C 26.503906 -37.46875 31.59375 -33.773438 31.59375 -26.390625 C 31.59375 -22.054688 29.476562 -18.703125 25.25 -16.328125 L 36.15625 0 L 24.671875 0 L 16.734375 -13.640625 Z M 14.171875 -21.25 L 16.0625 -21.25 C 19.601562 -21.25 21.375 -22.8125 21.375 -25.9375 C 21.375 -28.507812 19.640625 -29.796875 16.171875 -29.796875 L 14.171875 -29.796875 Z M 14.171875 -21.25 "/></g></g></g><g fill="#004aad" fill-opacity="1"><g transform="translate(136.138757, 267.488538)"><g><path d="M 9.515625 0 L 8.875 -2.46875 L 4.578125 -2.46875 L 3.921875 0 L 0 0 L 4.3125 -13.25 L 9.0625 -13.25 L 13.421875 0 Z M 8.125 -5.390625 L 7.5625 -7.5625 C 7.425781 -8.039062 7.265625 -8.660156 7.078125 -9.421875 C 6.890625 -10.191406 6.765625 -10.742188 6.703125 -11.078125 C 6.648438 -10.765625 6.539062 -10.253906 6.375 -9.546875 C 6.21875 -8.847656 5.867188 -7.460938 5.328125 -5.390625 Z M 8.125 -5.390625 "/></g></g></g><g fill="#004aad" fill-opacity="1"><g transform="translate(149.54615, 267.488538)"><g><path d="M 12.640625 -13.203125 L 12.640625 -5.25 C 12.640625 -3.519531 12.148438 -2.179688 11.171875 -1.234375 C 10.203125 -0.285156 8.796875 0.1875 6.953125 0.1875 C 5.148438 0.1875 3.765625 -0.269531 2.796875 -1.1875 C 1.835938 -2.113281 1.359375 -3.441406 1.359375 -5.171875 L 1.359375 -13.203125 L 4.9375 -13.203125 L 4.9375 -5.453125 C 4.9375 -4.515625 5.109375 -3.832031 5.453125 -3.40625 C 5.804688 -2.988281 6.320312 -2.78125 7 -2.78125 C 7.726562 -2.78125 8.253906 -2.988281 8.578125 -3.40625 C 8.910156 -3.832031 9.078125 -4.519531 9.078125 -5.46875 L 9.078125 -13.203125 Z M 12.640625 -13.203125 "/></g></g></g><g fill="#004aad" fill-opacity="1"><g transform="translate(163.521577, 267.488538)"><g><path d="M 7.25 0 L 3.6875 0 L 3.6875 -10.28125 L 0.453125 -10.28125 L 0.453125 -13.203125 L 10.453125 -13.203125 L 10.453125 -10.28125 L 7.25 -10.28125 Z M 7.25 0 "/></g></g></g><g fill="#004aad" fill-opacity="1"><g transform="translate(174.431426, 267.488538)"><g><path d="M 13.765625 -6.609375 C 13.765625 -4.390625 13.21875 -2.703125 12.125 -1.546875 C 11.039062 -0.390625 9.453125 0.1875 7.359375 0.1875 C 5.285156 0.1875 3.695312 -0.390625 2.59375 -1.546875 C 1.488281 -2.710938 0.9375 -4.410156 0.9375 -6.640625 C 0.9375 -8.828125 1.484375 -10.5 2.578125 -11.65625 C 3.679688 -12.820312 5.28125 -13.40625 7.375 -13.40625 C 9.476562 -13.40625 11.066406 -12.828125 12.140625 -11.671875 C 13.222656 -10.523438 13.765625 -8.835938 13.765625 -6.609375 Z M 4.6875 -6.609375 C 4.6875 -4.054688 5.578125 -2.78125 7.359375 -2.78125 C 8.253906 -2.78125 8.921875 -3.085938 9.359375 -3.703125 C 9.796875 -4.328125 10.015625 -5.296875 10.015625 -6.609375 C 10.015625 -7.929688 9.789062 -8.90625 9.34375 -9.53125 C 8.90625 -10.164062 8.25 -10.484375 7.375 -10.484375 C 5.582031 -10.484375 4.6875 -9.191406 4.6875 -6.609375 Z M 4.6875 -6.609375 "/></g></g></g><g fill="#004aad" fill-opacity="1"><g transform="translate(189.146197, 267.488538)"><g/></g></g><g fill="#004aad" fill-opacity="1"><g transform="translate(193.942924, 267.488538)"><g><path d="M 4.984375 -4.796875 L 4.984375 0 L 1.421875 0 L 1.421875 -13.203125 L 5.75 -13.203125 C 9.332031 -13.203125 11.125 -11.898438 11.125 -9.296875 C 11.125 -7.765625 10.378906 -6.582031 8.890625 -5.75 L 12.734375 0 L 8.6875 0 L 5.890625 -4.796875 Z M 4.984375 -7.484375 L 5.65625 -7.484375 C 6.90625 -7.484375 7.53125 -8.035156 7.53125 -9.140625 C 7.53125 -10.046875 6.914062 -10.5 5.6875 -10.5 L 4.984375 -10.5 Z M 4.984375 -7.484375 "/></g></g></g><g fill="#004aad" fill-opacity="1"><g transform="translate(206.43966, 267.488538)"><g><path d="M 9.265625 0 L 1.421875 0 L 1.421875 -13.203125 L 9.265625 -13.203125 L 9.265625 -10.328125 L 4.984375 -10.328125 L 4.984375 -8.265625 L 8.9375 -8.265625 L 8.9375 -5.390625 L 4.984375 -5.390625 L 4.984375 -2.90625 L 9.265625 -2.90625 Z M 9.265625 0 "/></g></g></g><g fill="#004aad" fill-opacity="1"><g transform="translate(216.574099, 267.488538)"><g><path d="M 11 -9 C 11 -7.519531 10.5625 -6.378906 9.6875 -5.578125 C 8.820312 -4.773438 7.59375 -4.375 6 -4.375 L 4.984375 -4.375 L 4.984375 0 L 1.421875 0 L 1.421875 -13.203125 L 6 -13.203125 C 7.664062 -13.203125 8.914062 -12.835938 9.75 -12.109375 C 10.582031 -11.378906 11 -10.34375 11 -9 Z M 4.984375 -7.28125 L 5.640625 -7.28125 C 6.171875 -7.28125 6.59375 -7.429688 6.90625 -7.734375 C 7.226562 -8.035156 7.390625 -8.453125 7.390625 -8.984375 C 7.390625 -9.867188 6.894531 -10.3125 5.90625 -10.3125 L 4.984375 -10.3125 Z M 4.984375 -7.28125 "/></g></g></g><g fill="#004aad" fill-opacity="1"><g transform="translate(228.241325, 267.488538)"><g><path d="M 9.515625 0 L 8.875 -2.46875 L 4.578125 -2.46875 L 3.921875 0 L 0 0 L 4.3125 -13.25 L 9.0625 -13.25 L 13.421875 0 Z M 8.125 -5.390625 L 7.5625 -7.5625 C 7.425781 -8.039062 7.265625 -8.660156 7.078125 -9.421875 C 6.890625 -10.191406 6.765625 -10.742188 6.703125 -11.078125 C 6.648438 -10.765625 6.539062 -10.253906 6.375 -9.546875 C 6.21875 -8.847656 5.867188 -7.460938 5.328125 -5.390625 Z M 8.125 -5.390625 "/></g></g></g><g fill="#004aad" fill-opacity="1"><g transform="translate(241.648718, 267.488538)"><g><path d="M 1.421875 0 L 1.421875 -13.203125 L 5.015625 -13.203125 L 5.015625 0 Z M 1.421875 0 "/></g></g></g><g fill="#004aad" fill-opacity="1"><g transform="translate(248.077414, 267.488538)"><g><path d="M 4.984375 -4.796875 L 4.984375 0 L 1.421875 0 L 1.421875 -13.203125 L 5.75 -13.203125 C 9.332031 -13.203125 11.125 -11.898438 11.125 -9.296875 C 11.125 -7.765625 10.378906 -6.582031 8.890625 -5.75 L 12.734375 0 L 8.6875 0 L 5.890625 -4.796875 Z M 4.984375 -7.484375 L 5.65625 -7.484375 C 6.90625 -7.484375 7.53125 -8.035156 7.53125 -9.140625 C 7.53125 -10.046875 6.914062 -10.5 5.6875 -10.5 L 4.984375 -10.5 Z M 4.984375 -7.484375 "/></g></g></g></svg>