<svg xmlns="http://www.w3.org/2000/svg" xmlns:xlink="http://www.w3.org/1999/xlink" width="500" zoomAndPan="magnify" viewBox="0 0 375 374.999991" height="500" preserveAspectRatio="xMidYMid meet" version="1.0"><defs><clipPath id="id1"><path d="M 112.5 114 L 262.5 114 L 262.5 261 L 112.5 261 Z M 112.5 114 " clip-rule="nonzero"/></clipPath></defs><g clip-path="url(#id1)"><path fill="#314f89" d="M 112.558594 261 L 112.558594 200.078125 L 141.21875 200.078125 C 141.21875 191.617188 140.226562 183.960938 138.238281 177.113281 C 136.25 170.269531 133.308594 163.730469 129.410156 157.5 C 125.515625 151.269531 119.894531 146.078125 112.558594 141.921875 L 112.558594 114 C 126.621094 120.152344 138.085938 128.230469 146.949219 138.230469 C 155.816406 148.230469 162.390625 159.191406 166.667969 171.117188 C 170.949219 183.039062 173.089844 200.386719 173.089844 223.15625 L 173.089844 261 Z M 201.910156 261 L 201.910156 200.078125 L 230.570312 200.078125 C 230.570312 191.617188 229.578125 183.960938 227.589844 177.113281 C 225.601562 170.269531 222.660156 163.730469 218.761719 157.5 C 214.867188 151.269531 209.25 146.078125 201.910156 141.921875 L 201.910156 114 C 215.820312 120.152344 227.246094 128.230469 236.1875 138.230469 C 245.132812 148.230469 251.742188 159.191406 256.019531 171.117188 C 260.300781 183.039062 262.441406 200.386719 262.441406 223.15625 L 262.441406 261 Z M 201.910156 261 " fill-opacity="1" fill-rule="nonzero"/></g></svg>