<svg xmlns="http://www.w3.org/2000/svg" xmlns:xlink="http://www.w3.org/1999/xlink" width="500" zoomAndPan="magnify" viewBox="0 0 375 374.999991" height="500" preserveAspectRatio="xMidYMid meet" version="1.0"><defs><clipPath id="id1"><path d="M 112.5 114 L 262.5 114 L 262.5 261 L 112.5 261 Z M 112.5 114 " clip-rule="nonzero"/></clipPath></defs><g clip-path="url(#id1)"><path fill="#314f89" d="M 262.441406 261 L 262.441406 200.078125 L 233.78125 200.078125 C 233.78125 191.617188 234.773438 183.960938 236.761719 177.113281 C 238.75 170.269531 241.691406 163.730469 245.589844 157.5 C 249.484375 151.269531 255.105469 146.078125 262.441406 141.921875 L 262.441406 114 C 248.378906 120.152344 236.914062 128.230469 228.050781 138.230469 C 219.183594 148.230469 212.609375 159.191406 208.332031 171.117188 C 204.050781 183.039062 201.910156 200.386719 201.910156 223.15625 L 201.910156 261 Z M 173.089844 261 L 173.089844 200.078125 L 144.429688 200.078125 C 144.429688 191.617188 145.421875 183.960938 147.410156 177.113281 C 149.398438 170.269531 152.339844 163.730469 156.238281 157.5 C 160.132812 151.269531 165.75 146.078125 173.089844 141.921875 L 173.089844 114 C 159.179688 120.152344 147.753906 128.230469 138.8125 138.230469 C 129.867188 148.230469 123.257812 159.191406 118.980469 171.117188 C 114.699219 183.039062 112.558594 200.386719 112.558594 223.15625 L 112.558594 261 Z M 173.089844 261 " fill-opacity="1" fill-rule="nonzero"/></g></svg>