<svg xmlns="http://www.w3.org/2000/svg" xmlns:xlink="http://www.w3.org/1999/xlink" width="500" zoomAndPan="magnify" viewBox="0 0 375 374.999991" height="500" preserveAspectRatio="xMidYMid meet" version="1.0"><defs><clipPath id="id1"><path d="M 132 51.316406 L 243 51.316406 L 243 185 L 132 185 Z M 132 51.316406 " clip-rule="nonzero"/></clipPath><clipPath id="id2"><path d="M 84 284 L 85 284 L 85 287 L 84 287 Z M 84 284 " clip-rule="nonzero"/></clipPath><clipPath id="id3"><path d="M 84 189 L 291 189 L 291 323.566406 L 84 323.566406 Z M 84 189 " clip-rule="nonzero"/></clipPath></defs><rect x="-37.5" width="450" fill="#ffffff" y="-37.499999" height="449.999989" fill-opacity="1"/><rect x="-37.5" width="450" fill="#ffffff" y="-37.499999" height="449.999989" fill-opacity="1"/><rect x="-37.5" width="450" fill="#ffffff" y="-37.499999" height="449.999989" fill-opacity="1"/><rect x="-37.5" width="450" fill="#ffffff" y="-37.499999" height="449.999989" fill-opacity="1"/><g clip-path="url(#id1)"><path fill="#000000" d="M 187.5 184.464844 C 217.761719 184.464844 242.292969 154.679688 242.292969 117.941406 C 242.292969 81.199219 234.238281 51.414062 187.5 51.414062 C 140.761719 51.414062 132.707031 81.199219 132.707031 117.941406 C 132.707031 154.679688 157.238281 184.464844 187.5 184.464844 Z M 187.5 184.464844 " fill-opacity="1" fill-rule="nonzero"/></g><g clip-path="url(#id2)"><path fill="#000000" d="M 84.007812 286.039062 C 83.996094 283.796875 83.988281 285.40625 84.007812 286.039062 Z M 84.007812 286.039062 " fill-opacity="1" fill-rule="nonzero"/></g><path fill="#000000" d="M 290.984375 287.789062 C 291.015625 287.175781 290.996094 283.53125 290.984375 287.789062 Z M 290.984375 287.789062 " fill-opacity="1" fill-rule="nonzero"/><g clip-path="url(#id3)"><path fill="#000000" d="M 290.875 283.355469 C 289.859375 219.355469 281.5 201.121094 217.507812 189.570312 C 217.507812 189.570312 208.5 201.042969 187.503906 201.042969 C 166.507812 201.042969 157.5 189.570312 157.5 189.570312 C 94.203125 200.988281 85.332031 218.957031 84.167969 281.273438 C 84.070312 286.363281 84.027344 286.628906 84.011719 286.039062 C 84.015625 287.144531 84.019531 289.191406 84.019531 292.761719 C 84.019531 292.761719 99.253906 323.460938 187.503906 323.460938 C 275.753906 323.460938 290.988281 292.761719 290.988281 292.761719 C 290.988281 290.46875 290.988281 288.875 290.992188 287.789062 C 290.972656 288.15625 290.941406 287.445312 290.875 283.351562 Z M 290.875 283.355469 " fill-opacity="1" fill-rule="nonzero"/></g></svg>